<svg xmlns="http://www.w3.org/2000/svg" width="18" height="18" viewBox="0 0 18 18" fill="none">
  <g clip-path="url(#clip0_5287_26954)">
    <path d="M8.73983 12.1219H10.4625C12.9164 12.1219 13.4789 10.2586 13.4789 9.33047C13.4789 7.81875 12.5156 6.53907 10.4062 6.53907H8.73983V12.1219Z" fill="black"/>
    <path fill-rule="evenodd" clip-rule="evenodd" d="M9 18C13.9711 18 18 13.9711 18 9C18 4.02891 13.9711 0 9 0C4.02891 0 0 4.02891 0 9C0 13.9711 4.02891 18 9 18ZM4.98515 13.0922H6.06796V5.56172H4.98515V13.0922ZM7.65702 5.56172H10.582C13.3664 5.56172 14.5898 7.55157 14.5898 9.33047C14.5898 11.2641 13.0781 13.0992 10.5961 13.0992H7.65702V5.56172ZM5.52656 4.70391C5.92031 4.70391 6.23672 4.38047 6.23672 3.99375C6.23672 3.60703 5.92031 3.28359 5.52656 3.28359C5.13281 3.28359 4.81641 3.6 4.81641 3.99375C4.81641 4.38047 5.13281 4.70391 5.52656 4.70391Z" fill="black"/>
  </g>
  <defs>
    <clipPath id="clip0_5287_26954">
      <rect width="18" height="18" fill="white"/>
    </clipPath>
  </defs>
</svg>